<svg id="Layer_1" data-name="Layer 1" xmlns="http://www.w3.org/2000/svg" viewBox="0 0 421.88 450"><defs><style>.cls-1{fill:#fff;}.cls-2{fill:#3dab49;}.cls-3{fill:#8e5222;}.cls-4{fill:#5dba47;}.cls-5{fill:#1b8e45;}.cls-6{fill:#4d3013;}</style></defs><path class="cls-1" d="M508.58,641q-210.9,0-421.88,0V191H508.58ZM325.24,374.21l0,0q0-6.94,0-13.89l70,0,0,0,.25,14V388h13.72V346.13H395.39l.05.06V332.33H381.32l-13.92-.21V318.29H325.46V304h13.85V290.12l0,0h42.14v-14.1H395V262.18H325.17V276.1h-14.1V290l0,0-14,.24H283V276h-13.8V262.25H212.81V276H198.6v14.26H185.08v27.65H199V303.94h13.9l42.06.26-.07-.06v14.14H269v13.81l-42,.24H198.8v13.84l0,0H185v14.13l-.21,13.93H171v27.9h13.94V388.4h14V360.32h56v28.17h14.1l.16,13.88v28.25H254.85v56.18h-14V557H227.25v41.78h55.57v-14H269.09l.08.09v-28l-.08.08h14.12V486.64l-.09.09h14.12V430.49l-.08.08h14.15V416.42h14v28.1h14V458.6h13.9v13.64h13.94V402.29h-13.8v-14H339.27l0,0V374.21Z" transform="translate(-86.7 -191)"/><path class="cls-2" d="M255,360.31H199l-.13-.12V346.13l0,0H227V332.33l42-.24v13.68h13.71V304.14H254.91l.07.06V290.49H212.92v13.45H199v13.93H185.08V290.22H198.6V276H283v14.25h14.15v27.54h14V290l0,0,28.24.11V304H325.46v14.32h27.79v13.83H367.4l13.92.21,0,13.81-70.18.08H297.5v13l13.67,1h0v14h14.11l0,0v14.07h14.07l0,0q0,7.06,0,14.13l-28.11,0,0,0V388.36H297.07l0,0V374.1H268.93V360.31Z" transform="translate(-86.7 -191)"/><path class="cls-3" d="M269.07,598.77H227.25V557H240.8v-70.2h14V430.61h14.36V402.36h14V416.5h14v14.07l.08-.08H283.12v56.24l.09-.09H269.09v70.28l.08-.08H255.4v28h13.77l-.08-.09Q269.08,591.76,269.07,598.77Z" transform="translate(-86.7 -191)"/><path class="cls-4" d="M339.31,290.12,311.07,290V276.1h14.1V262.18H395v13.88H339.28v14.1Z" transform="translate(-86.7 -191)"/><path class="cls-5" d="M311.18,346.22l70.18-.08,14.08.05-.05-.06q0,7.11-.1,14.2l-70,0-14.09-.11h0Q311.17,353.23,311.18,346.22Z" transform="translate(-86.7 -191)"/><path class="cls-5" d="M311.11,402.4l28.11,0h0v28.08h14l-.05,28.14H339.3V444.52h-14v-28.1h-14Q311.21,409.42,311.11,402.4Z" transform="translate(-86.7 -191)"/><path class="cls-6" d="M311.11,402.4q.11,7,.2,14v14.15H297.16V416.5h-14V402.36h-14q-.09-6.94-.16-13.88l28-.1,0,0v14.06h14.06Z" transform="translate(-86.7 -191)"/><path class="cls-6" d="M269.09,556.92V486.64h14.12v70.28Z" transform="translate(-86.7 -191)"/><path class="cls-4" d="M269.16,276H212.81V262.25h56.35Z" transform="translate(-86.7 -191)"/><path class="cls-5" d="M254.91,304.14h27.78v41.63H269V318.28H254.91Z" transform="translate(-86.7 -191)"/><path class="cls-5" d="M297.09,388.38l-28,.1H255V360.31h14V374.1h28.16Z" transform="translate(-86.7 -191)"/><path class="cls-6" d="M283.12,486.73V430.49h14.12v56.24Z" transform="translate(-86.7 -191)"/><path class="cls-2" d="M339.28,290.16v-14.1h42.14v14.1Z" transform="translate(-86.7 -191)"/><path class="cls-5" d="M212.92,303.94V290.49H255V304.2Z" transform="translate(-86.7 -191)"/><path class="cls-2" d="M353.2,458.6q0-14.07.05-28.14h13.89v41.78H353.2Z" transform="translate(-86.7 -191)"/><path class="cls-4" d="M311.11,290v27.78h-14V290.21Z" transform="translate(-86.7 -191)"/><path class="cls-4" d="M227,332.33v13.84H198.8V332.33Z" transform="translate(-86.7 -191)"/><path class="cls-2" d="M199,360.32V388.4h-14l-.12-.13V374.19l.21-13.93,13.82-.06Z" transform="translate(-86.7 -191)"/><path class="cls-4" d="M367.14,430.46H353.25q-.08-14-.14-27.94l.23-.23h13.8Z" transform="translate(-86.7 -191)"/><path class="cls-6" d="M269.17,584.85H255.4v-28h13.77Z" transform="translate(-86.7 -191)"/><path class="cls-5" d="M409.24,374.3V388H395.52V374.3Z" transform="translate(-86.7 -191)"/><path class="cls-2" d="M184.91,388.4v13.69H171V388.34l13.82-.07Z" transform="translate(-86.7 -191)"/><path class="cls-4" d="M339.22,402.38q0-7.06,0-14.13h14.07v14l-.23.23-13.9-.14Z" transform="translate(-86.7 -191)"/><path class="cls-4" d="M367.4,332.12H353.25V318.29H367.4Z" transform="translate(-86.7 -191)"/><path class="cls-4" d="M395.44,346.19l-14.08-.05q0-6.9,0-13.81h14.12Z" transform="translate(-86.7 -191)"/><path class="cls-4" d="M198.82,360.2l-13.82.06V346.13h13.83Q198.83,353.17,198.82,360.2Z" transform="translate(-86.7 -191)"/><path class="cls-4" d="M395.29,360.33q0-7.09.1-14.2h13.85v14.13l-14,.05Z" transform="translate(-86.7 -191)"/><path class="cls-4" d="M311.16,360.24l14.09.11q0,6.94,0,13.89H311.16Z" transform="translate(-86.7 -191)"/><path class="cls-2" d="M395.27,360.31l14-.05v14H395.52Z" transform="translate(-86.7 -191)"/><path class="cls-4" d="M184.79,388.27l-13.82.07V374.19h13.82Z" transform="translate(-86.7 -191)"/><path class="cls-4" d="M339.31,388.28H325.24V374.21h14.07Z" transform="translate(-86.7 -191)"/><path class="cls-6" d="M269.07,598.77q0-7,0-14h13.73v14Z" transform="translate(-86.7 -191)"/><path class="cls-5" d="M311.13,402.42H297.07V388.36h14.06Z" transform="translate(-86.7 -191)"/><path class="cls-4" d="M311.18,346.22q0,7,0,14l-13.67-1v-13Z" transform="translate(-86.7 -191)"/><path class="cls-2" d="M339.21,402.38l13.9.14q.08,14,.14,27.94h-14Z" transform="translate(-86.7 -191)"/></svg>